<svg xmlns="http://www.w3.org/2000/svg" width="24" height="24" viewBox="0 0 24 24">
  <g id="ico-authority" transform="translate(0 0)">
    <rect id="사각형_1466" data-name="사각형 1466" width="24" height="24" transform="translate(0 0)" fill="#fff" opacity="0"/>
    <path id="ico-authority-2" data-name="ico-authority" d="M8,20H8a18.285,18.285,0,0,1-4.659-2.407A9.8,9.8,0,0,1,.968,15.16a6.215,6.215,0,0,1-.855-1.883A3.246,3.246,0,0,1,0,12.521V.887H0A18.776,18.776,0,0,1,2.053.444,34.3,34.3,0,0,1,7.66,0,40.36,40.36,0,0,1,16,.887h0V12.521a3.207,3.207,0,0,1-.113.756,6.215,6.215,0,0,1-.855,1.883,9.8,9.8,0,0,1-2.371,2.433A18.285,18.285,0,0,1,8,20ZM4.342,8.67,3.082,10.055l3.692,4.056,6.213-6.825L11.726,5.9l-4.952,5.44Z" transform="translate(4 2)" fill="#717171"/>
  </g>
</svg>
