<svg xmlns="http://www.w3.org/2000/svg" width="24" height="24" viewBox="0 0 24 24">
  <g id="ico-refresh" opacity="0.5">
    <rect id="사각형_1465" data-name="사각형 1465" width="24" height="24" fill="#fff" opacity="0"/>
    <path id="빼기_67" data-name="빼기 67" d="M-11952.652-200.307a9.357,9.357,0,0,1-9.349-9.345,9.359,9.359,0,0,1,9.349-9.348,9.278,9.278,0,0,1,6.6,2.741h-1.93v2.036a6.489,6.489,0,0,0-4.674-1.97,6.549,6.549,0,0,0-6.542,6.542,6.549,6.549,0,0,0,6.542,6.542,6.549,6.549,0,0,0,6.541-6.542h2.8a9.284,9.284,0,0,1-2.737,6.608A9.274,9.274,0,0,1-11952.652-200.307Z" transform="translate(11964.652 221.653)" fill="#fff"/>
    <path id="다각형_120" data-name="다각형 120" d="M3,0,6,5H0Z" transform="translate(21.843 6.809) rotate(130)" fill="#fff"/>
  </g>
</svg>
