<?xml version="1.0" encoding="utf-8"?>
<svg version="1.1" xmlns:xlink="http://www.w3.org/1999/xlink" width="20px" height="16px" xmlns="http://www.w3.org/2000/svg">
  <g transform="matrix(1 0 0 1 -44 -723 )">
    <path d="M 1 0  L 1 16  L 0 16  L 0 0  L 1 0  Z M 1.40625 0  L 1.40625 15.988636363636363  L 1 15.988636363636363  L 1 0  L 1.40625 0  Z M 2.455357142857143 0  L 2.455357142857143 15.988636363636363  L 2.109375 15.988636363636363  L 2.109375 0  L 2.455357142857143 0  Z M 4.207589285714286 0  L 4.207589285714286 15.988636363636363  L 4 15.988636363636363  L 4 0  L 4.207589285714286 0  Z M 6 0  L 6 15.988636363636363  L 5.267857142857143 15.988636363636363  L 5.267857142857143 0  L 6 0  Z M 7.366071428571429 0  L 7.366071428571429 15.988636363636363  L 7 15.988636363636363  L 7 0  L 7.366071428571429 0  Z M 8 0  L 8 15.988636363636363  L 8 0  Z M 9 0  L 9 15.988636363636363  L 8.426339285714286 15.988636363636363  L 8.426339285714286 0  L 9 0  Z M 10.524553571428573 0  L 10.524553571428573 15.988636363636363  L 10 15.988636363636363  L 10 0  L 10.524553571428573 0  Z M 12 0  L 12 15.988636363636363  L 11.573660714285714 15.988636363636363  L 11.573660714285714 0  L 12 0  Z M 13.683035714285714 0  L 13.683035714285714 15.988636363636363  L 13 15.988636363636363  L 13 0  L 13.683035714285714 0  Z M 15 0  L 15 15.988636363636363  L 14 15.988636363636363  L 14 0  L 15 0  Z M 16 0  L 16 15.988636363636363  L 15.435267857142858 15.988636363636363  L 15.435267857142858 0  L 16 0  Z M 18 0  L 18 15.988636363636363  L 17 15.988636363636363  L 17 0  L 18 0  Z M 19 0  L 19 15.988636363636363  L 18.59375 15.988636363636363  L 18.59375 0  L 19 0  Z M 20 0  L 20 16  L 19 16  L 19 0  L 20 0  Z " fill-rule="nonzero" fill="#ffffff" stroke="none" transform="matrix(1 0 0 1 44 723 )" />
  </g>
</svg>